<?xml version="1.0" standalone="no"?>
<!DOCTYPE svg PUBLIC "-//W3C//DTD SVG 20010904//EN"
 "http://www.w3.org/TR/2001/REC-SVG-20010904/DTD/svg10.dtd">
<svg version="1.0" xmlns="http://www.w3.org/2000/svg"
 width="700.000000pt" height="700.000000pt" viewBox="0 0 700.000000 700.000000"
 preserveAspectRatio="xMidYMid meet">
<metadata>
Created by potrace 1.14, written by Peter Selinger 2001-2017
</metadata>
<g transform="translate(0.000000,700.000000) scale(0.100000,-0.100000)"
fill="#000000" stroke="none">
<path d="M2540 5897 c-1347 -187 -1951 -275 -1987 -289 -108 -40 -217 -148
-270 -267 -48 -108 -66 -213 -66 -381 0 -294 63 -519 187 -673 l46 -56 -102
-31 c-57 -17 -125 -38 -153 -47 -137 -42 -107 -143 61 -212 89 -36 118 -57
163 -120 55 -77 82 -186 88 -347 3 -78 3 -170 -1 -205 l-7 -64 -152 -49 c-223
-71 -347 -135 -347 -180 0 -18 40 -40 89 -50 19 -3 52 -11 73 -17 l38 -10 -26
-27 c-111 -115 -174 -309 -174 -537 0 -107 24 -288 50 -385 50 -179 160 -338
272 -393 29 -14 628 -212 1331 -440 l1279 -414 1896 458 c1043 253 1909 464
1924 470 98 39 -22 122 -314 216 -174 56 -161 36 -161 253 1 300 74 460 240
524 132 51 181 106 151 169 -14 29 -25 35 -96 56 l-81 23 67 67 c151 148 225
384 225 711 0 125 -4 172 -21 242 -22 90 -66 188 -108 245 l-24 32 37 10 c21
5 97 24 170 41 148 35 169 46 158 79 -14 46 -182 125 -397 188 l-97 28 -7 64
c-10 97 2 337 21 405 9 33 28 82 42 109 29 58 102 132 138 141 49 12 137 59
166 88 33 34 38 75 12 107 -14 17 -272 98 -1163 366 -630 190 -1165 351 -1190
359 -42 12 -172 -5 -1980 -257z m-1583 -641 c158 -52 477 -156 708 -231 231
-75 641 -209 910 -297 270 -88 515 -168 545 -177 l55 -17 -3 -99 c-6 -220 -24
-740 -25 -742 -1 -1 -274 75 -607 168 -1360 381 -1847 517 -1877 524 -86 18
-175 152 -209 315 -22 107 -25 350 -5 430 17 69 52 138 84 168 25 24 88 51
119 52 9 0 146 -42 305 -94z m5459 -148 c-47 -105 -60 -196 -58 -393 1 -99 3
-198 5 -219 l2 -39 -70 -19 c-246 -65 -3001 -746 -3004 -742 -7 7 20 818 27
825 7 7 3115 648 3120 644 1 -1 -9 -27 -22 -57z m12 -1092 c56 -29 98 -97 123
-196 20 -79 17 -332 -5 -435 -25 -114 -69 -206 -127 -260 -26 -24 -60 -47 -76
-51 -15 -3 -422 -116 -903 -251 -1193 -333 -1552 -434 -1572 -439 -16 -5 -18
2 -19 48 0 29 -6 217 -13 418 -7 201 -12 367 -10 368 1 2 557 185 1236 407
1290 422 1301 425 1366 391z m-5473 -241 c204 -42 534 -110 735 -151 201 -41
538 -111 750 -154 212 -43 540 -111 730 -150 190 -39 381 -78 425 -87 44 -8
83 -18 87 -22 8 -7 34 -818 26 -826 -3 -3 -410 95 -904 219 -494 123 -1185
295 -1534 381 -349 87 -636 159 -638 160 -1 1 3 64 10 139 19 214 -6 401 -76
559 -6 12 -4 16 5 12 8 -2 181 -38 384 -80z m76 -1236 c305 -99 754 -245 999
-325 245 -80 551 -180 680 -222 129 -42 239 -79 244 -84 8 -6 -11 -827 -19
-836 -5 -5 -2475 687 -2518 706 -75 31 -138 136 -173 287 -27 114 -27 383 0
473 35 116 102 182 187 182 32 0 208 -53 600 -181z m5184 -16 c-62 -159 -80
-283 -71 -483 4 -80 9 -159 12 -175 l6 -30 -1541 -384 c-848 -211 -1543 -382
-1545 -380 -6 6 23 821 30 828 3 3 152 36 330 72 301 62 329 66 372 55 44 -12
54 -10 232 47 162 53 305 85 1165 263 539 111 988 202 999 203 13 1 16 -4 11
-16z"/>
</g>
</svg>
