<svg width="646" height="502" viewBox="0 0 646 502" fill="none" xmlns="http://www.w3.org/2000/svg">
<g filter="url(#filter0_d_1_307)">
<rect x="584.324" y="23" width="104.604" height="249.337" transform="rotate(89.4124 584.324 23)" fill="#4D2900"/>
</g>
<g filter="url(#filter1_d_1_307)">
<rect x="353.324" y="1" width="104.604" height="249.337" transform="rotate(89.4124 353.324 1)" fill="#4D2900"/>
</g>
<g filter="url(#filter2_d_1_307)">
<rect x="13" y="46.9999" width="632" height="372" fill="#4D2900"/>
</g>
<g filter="url(#filter3_d_1_307)">
<rect x="196" y="413" width="297" height="76" fill="#4D2900"/>
</g>
<path d="M216.512 467.732C217.048 467.732 217.536 467.84 217.976 468.056C218.416 468.272 218.764 468.58 219.02 468.98C219.276 469.372 219.404 469.828 219.404 470.348C219.404 470.908 219.264 471.4 218.984 471.824C218.704 472.248 218.32 472.576 217.832 472.808C217.352 473.032 216.816 473.144 216.224 473.144C215.048 473.144 214.128 472.784 213.464 472.064C212.8 471.344 212.468 470.316 212.468 468.98C212.468 468.028 212.648 467.212 213.008 466.532C213.368 465.852 213.868 465.336 214.508 464.984C215.156 464.632 215.904 464.456 216.752 464.456C217.2 464.456 217.628 464.508 218.036 464.612C218.452 464.708 218.804 464.848 219.092 465.032L218.372 466.46C217.956 466.18 217.432 466.04 216.8 466.04C216.088 466.04 215.524 466.248 215.108 466.664C214.692 467.08 214.468 467.684 214.436 468.476C214.932 467.98 215.624 467.732 216.512 467.732ZM216.116 471.692C216.532 471.692 216.868 471.58 217.124 471.356C217.388 471.132 217.52 470.828 217.52 470.444C217.52 470.06 217.388 469.756 217.124 469.532C216.868 469.3 216.524 469.184 216.092 469.184C215.668 469.184 215.32 469.304 215.048 469.544C214.776 469.776 214.64 470.076 214.64 470.444C214.64 470.812 214.772 471.112 215.036 471.344C215.3 471.576 215.66 471.692 216.116 471.692ZM227.801 471.236H226.433V473H224.537V471.236H220.013V469.928L223.973 464.6H226.013L222.341 469.652H224.597V468.08H226.433V469.652H227.801V471.236ZM231.287 464.456C232.463 464.456 233.383 464.816 234.047 465.536C234.711 466.248 235.043 467.276 235.043 468.62C235.043 469.572 234.863 470.388 234.503 471.068C234.151 471.748 233.651 472.264 233.003 472.616C232.355 472.968 231.607 473.144 230.759 473.144C230.311 473.144 229.883 473.096 229.475 473C229.067 472.896 228.719 472.752 228.431 472.568L229.151 471.14C229.559 471.42 230.083 471.56 230.723 471.56C231.435 471.56 231.999 471.352 232.415 470.936C232.831 470.512 233.055 469.904 233.087 469.112C232.583 469.616 231.887 469.868 230.999 469.868C230.463 469.868 229.975 469.76 229.535 469.544C229.095 469.328 228.747 469.024 228.491 468.632C228.235 468.232 228.107 467.772 228.107 467.252C228.107 466.692 228.247 466.2 228.527 465.776C228.807 465.352 229.187 465.028 229.667 464.804C230.155 464.572 230.695 464.456 231.287 464.456ZM231.431 468.416C231.855 468.416 232.199 468.3 232.463 468.068C232.735 467.828 232.871 467.524 232.871 467.156C232.871 466.788 232.739 466.488 232.475 466.256C232.219 466.024 231.863 465.908 231.407 465.908C230.991 465.908 230.651 466.02 230.387 466.244C230.131 466.468 230.003 466.772 230.003 467.156C230.003 467.54 230.131 467.848 230.387 468.08C230.651 468.304 230.999 468.416 231.431 468.416ZM244.978 468.08H241.666V473H239.806V466.544H244.978V468.08ZM249.774 466.448C250.374 466.448 250.918 466.588 251.406 466.868C251.902 467.14 252.29 467.528 252.57 468.032C252.85 468.528 252.99 469.108 252.99 469.772C252.99 470.436 252.85 471.02 252.57 471.524C252.29 472.02 251.902 472.408 251.406 472.688C250.918 472.96 250.374 473.096 249.774 473.096C248.95 473.096 248.302 472.836 247.83 472.316V475.328H245.958V466.544H247.746V467.288C248.21 466.728 248.886 466.448 249.774 466.448ZM249.45 471.56C249.93 471.56 250.322 471.4 250.626 471.08C250.938 470.752 251.094 470.316 251.094 469.772C251.094 469.228 250.938 468.796 250.626 468.476C250.322 468.148 249.93 467.984 249.45 467.984C248.97 467.984 248.574 468.148 248.262 468.476C247.958 468.796 247.806 469.228 247.806 469.772C247.806 470.316 247.958 470.752 248.262 471.08C248.574 471.4 248.97 471.56 249.45 471.56ZM254.302 466.544H256.162V469.064H258.97V466.544H260.842V473H258.97V470.588H256.162V473H254.302V466.544ZM263.306 473.096C262.978 473.096 262.702 472.984 262.478 472.76C262.254 472.536 262.142 472.256 262.142 471.92C262.142 471.576 262.254 471.3 262.478 471.092C262.702 470.876 262.978 470.768 263.306 470.768C263.634 470.768 263.91 470.876 264.134 471.092C264.358 471.3 264.47 471.576 264.47 471.92C264.47 472.256 264.358 472.536 264.134 472.76C263.91 472.984 263.634 473.096 263.306 473.096Z" fill="white"/>
<path d="M219.488 430.732H216.29V439H215.341V430.732H212.143V429.9H219.488V430.732ZM223.777 439.065C223.118 439.065 222.524 438.918 221.996 438.623C221.467 438.32 221.051 437.904 220.748 437.375C220.444 436.846 220.293 436.248 220.293 435.581C220.293 434.914 220.444 434.316 220.748 433.787C221.051 433.258 221.467 432.847 221.996 432.552C222.524 432.257 223.118 432.11 223.777 432.11C224.435 432.11 225.029 432.257 225.558 432.552C226.086 432.847 226.498 433.258 226.793 433.787C227.096 434.316 227.248 434.914 227.248 435.581C227.248 436.248 227.096 436.846 226.793 437.375C226.498 437.904 226.086 438.32 225.558 438.623C225.029 438.918 224.435 439.065 223.777 439.065ZM223.777 438.246C224.262 438.246 224.695 438.138 225.077 437.921C225.467 437.696 225.77 437.379 225.987 436.972C226.203 436.565 226.312 436.101 226.312 435.581C226.312 435.061 226.203 434.597 225.987 434.19C225.77 433.783 225.467 433.471 225.077 433.254C224.695 433.029 224.262 432.916 223.777 432.916C223.291 432.916 222.854 433.029 222.464 433.254C222.082 433.471 221.779 433.783 221.554 434.19C221.337 434.597 221.229 435.061 221.229 435.581C221.229 436.101 221.337 436.565 221.554 436.972C221.779 437.379 222.082 437.696 222.464 437.921C222.854 438.138 223.291 438.246 223.777 438.246ZM229.22 432.162H230.143V435.191H234.446V432.162H235.369V439H234.446V435.984H230.143V439H229.22V432.162ZM240.476 435.958H238.916V439H237.993V432.162H238.916V435.165H240.489L242.894 432.162H243.895L241.204 435.477L244.09 439H242.998L240.476 435.958ZM248.126 439.065C247.468 439.065 246.874 438.918 246.345 438.623C245.817 438.32 245.401 437.904 245.097 437.375C244.794 436.846 244.642 436.248 244.642 435.581C244.642 434.914 244.794 434.316 245.097 433.787C245.401 433.258 245.817 432.847 246.345 432.552C246.874 432.257 247.468 432.11 248.126 432.11C248.785 432.11 249.379 432.257 249.907 432.552C250.436 432.847 250.848 433.258 251.142 433.787C251.446 434.316 251.597 434.914 251.597 435.581C251.597 436.248 251.446 436.846 251.142 437.375C250.848 437.904 250.436 438.32 249.907 438.623C249.379 438.918 248.785 439.065 248.126 439.065ZM248.126 438.246C248.612 438.246 249.045 438.138 249.426 437.921C249.816 437.696 250.12 437.379 250.336 436.972C250.553 436.565 250.661 436.101 250.661 435.581C250.661 435.061 250.553 434.597 250.336 434.19C250.12 433.783 249.816 433.471 249.426 433.254C249.045 433.029 248.612 432.916 248.126 432.916C247.641 432.916 247.203 433.029 246.813 433.254C246.432 433.471 246.129 433.783 245.903 434.19C245.687 434.597 245.578 435.061 245.578 435.581C245.578 436.101 245.687 436.565 245.903 436.972C246.129 437.379 246.432 437.696 246.813 437.921C247.203 438.138 247.641 438.246 248.126 438.246ZM259.55 435.867H253.83C253.882 436.578 254.155 437.154 254.649 437.596C255.143 438.029 255.767 438.246 256.521 438.246C256.946 438.246 257.336 438.172 257.691 438.025C258.046 437.869 258.354 437.644 258.614 437.349L259.134 437.947C258.831 438.311 258.449 438.588 257.99 438.779C257.539 438.97 257.041 439.065 256.495 439.065C255.793 439.065 255.169 438.918 254.623 438.623C254.086 438.32 253.665 437.904 253.362 437.375C253.059 436.846 252.907 436.248 252.907 435.581C252.907 434.914 253.05 434.316 253.336 433.787C253.631 433.258 254.029 432.847 254.532 432.552C255.043 432.257 255.615 432.11 256.248 432.11C256.881 432.11 257.448 432.257 257.951 432.552C258.454 432.847 258.848 433.258 259.134 433.787C259.42 434.307 259.563 434.905 259.563 435.581L259.55 435.867ZM256.248 432.903C255.589 432.903 255.035 433.115 254.584 433.54C254.142 433.956 253.891 434.502 253.83 435.178H258.679C258.618 434.502 258.363 433.956 257.912 433.54C257.47 433.115 256.915 432.903 256.248 432.903ZM265.008 432.162H265.931V437.596L270.494 432.162H271.313V439H270.39V433.566L265.84 439H265.008V432.162ZM276.819 439.065C276.143 439.065 275.536 438.918 274.999 438.623C274.47 438.328 274.054 437.917 273.751 437.388C273.447 436.851 273.296 436.248 273.296 435.581C273.296 434.914 273.447 434.316 273.751 433.787C274.054 433.258 274.47 432.847 274.999 432.552C275.536 432.257 276.143 432.11 276.819 432.11C277.408 432.11 277.932 432.227 278.392 432.461C278.86 432.686 279.228 433.02 279.497 433.462L278.808 433.93C278.582 433.592 278.296 433.341 277.95 433.176C277.603 433.003 277.226 432.916 276.819 432.916C276.325 432.916 275.878 433.029 275.48 433.254C275.09 433.471 274.782 433.783 274.557 434.19C274.34 434.597 274.232 435.061 274.232 435.581C274.232 436.11 274.34 436.578 274.557 436.985C274.782 437.384 275.09 437.696 275.48 437.921C275.878 438.138 276.325 438.246 276.819 438.246C277.226 438.246 277.603 438.164 277.95 437.999C278.296 437.834 278.582 437.583 278.808 437.245L279.497 437.713C279.228 438.155 278.86 438.493 278.392 438.727C277.924 438.952 277.399 439.065 276.819 439.065ZM283.767 435.958H282.207V439H281.284V432.162H282.207V435.165H283.78L286.185 432.162H287.186L284.495 435.477L287.381 439H286.289L283.767 435.958ZM294.255 432.162L290.836 439.819C290.559 440.46 290.238 440.915 289.874 441.184C289.51 441.453 289.072 441.587 288.561 441.587C288.232 441.587 287.924 441.535 287.638 441.431C287.352 441.327 287.105 441.171 286.897 440.963L287.326 440.274C287.673 440.621 288.089 440.794 288.574 440.794C288.886 440.794 289.15 440.707 289.367 440.534C289.592 440.361 289.8 440.066 289.991 439.65L290.29 438.987L287.235 432.162H288.197L290.771 437.973L293.345 432.162H294.255ZM298.362 439.065C297.686 439.065 297.08 438.918 296.542 438.623C296.014 438.328 295.598 437.917 295.294 437.388C294.991 436.851 294.839 436.248 294.839 435.581C294.839 434.914 294.991 434.316 295.294 433.787C295.598 433.258 296.014 432.847 296.542 432.552C297.08 432.257 297.686 432.11 298.362 432.11C298.952 432.11 299.476 432.227 299.935 432.461C300.403 432.686 300.772 433.02 301.04 433.462L300.351 433.93C300.126 433.592 299.84 433.341 299.493 433.176C299.147 433.003 298.77 432.916 298.362 432.916C297.868 432.916 297.422 433.029 297.023 433.254C296.633 433.471 296.326 433.783 296.1 434.19C295.884 434.597 295.775 435.061 295.775 435.581C295.775 436.11 295.884 436.578 296.1 436.985C296.326 437.384 296.633 437.696 297.023 437.921C297.422 438.138 297.868 438.246 298.362 438.246C298.77 438.246 299.147 438.164 299.493 437.999C299.84 437.834 300.126 437.583 300.351 437.245L301.04 437.713C300.772 438.155 300.403 438.493 299.935 438.727C299.467 438.952 298.943 439.065 298.362 439.065ZM305.573 439.065C304.897 439.065 304.291 438.918 303.753 438.623C303.225 438.328 302.809 437.917 302.505 437.388C302.202 436.851 302.05 436.248 302.05 435.581C302.05 434.914 302.202 434.316 302.505 433.787C302.809 433.258 303.225 432.847 303.753 432.552C304.291 432.257 304.897 432.11 305.573 432.11C306.163 432.11 306.687 432.227 307.146 432.461C307.614 432.686 307.983 433.02 308.251 433.462L307.562 433.93C307.337 433.592 307.051 433.341 306.704 433.176C306.358 433.003 305.981 432.916 305.573 432.916C305.079 432.916 304.633 433.029 304.234 433.254C303.844 433.471 303.537 433.783 303.311 434.19C303.095 434.597 302.986 435.061 302.986 435.581C302.986 436.11 303.095 436.578 303.311 436.985C303.537 437.384 303.844 437.696 304.234 437.921C304.633 438.138 305.079 438.246 305.573 438.246C305.981 438.246 306.358 438.164 306.704 437.999C307.051 437.834 307.337 437.583 307.562 437.245L308.251 437.713C307.983 438.155 307.614 438.493 307.146 438.727C306.678 438.952 306.154 439.065 305.573 439.065ZM314.722 432.981H312.135V439H311.212V432.981H308.625V432.162H314.722V432.981ZM320.411 435.464C321.338 435.681 321.802 436.24 321.802 437.141C321.802 437.739 321.581 438.198 321.139 438.519C320.697 438.84 320.038 439 319.163 439H316.056V432.162H319.072C319.852 432.162 320.463 432.314 320.905 432.617C321.347 432.92 321.568 433.354 321.568 433.917C321.568 434.29 321.464 434.61 321.256 434.879C321.057 435.139 320.775 435.334 320.411 435.464ZM316.953 435.204H319.007C319.536 435.204 319.939 435.104 320.216 434.905C320.502 434.706 320.645 434.415 320.645 434.034C320.645 433.653 320.502 433.367 320.216 433.176C319.939 432.985 319.536 432.89 319.007 432.89H316.953V435.204ZM319.124 438.272C319.713 438.272 320.155 438.177 320.45 437.986C320.745 437.795 320.892 437.496 320.892 437.089C320.892 436.682 320.758 436.383 320.489 436.192C320.22 435.993 319.796 435.893 319.215 435.893H316.953V438.272H319.124ZM326.786 439.065C326.128 439.065 325.534 438.918 325.005 438.623C324.477 438.32 324.061 437.904 323.757 437.375C323.454 436.846 323.302 436.248 323.302 435.581C323.302 434.914 323.454 434.316 323.757 433.787C324.061 433.258 324.477 432.847 325.005 432.552C325.534 432.257 326.128 432.11 326.786 432.11C327.445 432.11 328.039 432.257 328.567 432.552C329.096 432.847 329.508 433.258 329.802 433.787C330.106 434.316 330.257 434.914 330.257 435.581C330.257 436.248 330.106 436.846 329.802 437.375C329.508 437.904 329.096 438.32 328.567 438.623C328.039 438.918 327.445 439.065 326.786 439.065ZM326.786 438.246C327.272 438.246 327.705 438.138 328.086 437.921C328.476 437.696 328.78 437.379 328.996 436.972C329.213 436.565 329.321 436.101 329.321 435.581C329.321 435.061 329.213 434.597 328.996 434.19C328.78 433.783 328.476 433.471 328.086 433.254C327.705 433.029 327.272 432.916 326.786 432.916C326.301 432.916 325.863 433.029 325.473 433.254C325.092 433.471 324.789 433.783 324.563 434.19C324.347 434.597 324.238 435.061 324.238 435.581C324.238 436.101 324.347 436.565 324.563 436.972C324.789 437.379 325.092 437.696 325.473 437.921C325.863 438.138 326.301 438.246 326.786 438.246ZM341.768 432.162V439H340.845V432.981H336.555V439H335.632V432.162H341.768ZM347.213 439.065C346.554 439.065 345.961 438.918 345.432 438.623C344.903 438.32 344.487 437.904 344.184 437.375C343.881 436.846 343.729 436.248 343.729 435.581C343.729 434.914 343.881 434.316 344.184 433.787C344.487 433.258 344.903 432.847 345.432 432.552C345.961 432.257 346.554 432.11 347.213 432.11C347.872 432.11 348.465 432.257 348.994 432.552C349.523 432.847 349.934 433.258 350.229 433.787C350.532 434.316 350.684 434.914 350.684 435.581C350.684 436.248 350.532 436.846 350.229 437.375C349.934 437.904 349.523 438.32 348.994 438.623C348.465 438.918 347.872 439.065 347.213 439.065ZM347.213 438.246C347.698 438.246 348.132 438.138 348.513 437.921C348.903 437.696 349.206 437.379 349.423 436.972C349.64 436.565 349.748 436.101 349.748 435.581C349.748 435.061 349.64 434.597 349.423 434.19C349.206 433.783 348.903 433.471 348.513 433.254C348.132 433.029 347.698 432.916 347.213 432.916C346.728 432.916 346.29 433.029 345.9 433.254C345.519 433.471 345.215 433.783 344.99 434.19C344.773 434.597 344.665 435.061 344.665 435.581C344.665 436.101 344.773 436.565 344.99 436.972C345.215 437.379 345.519 437.696 345.9 437.921C346.29 438.138 346.728 438.246 347.213 438.246ZM360.912 435.568C360.912 436.634 360.561 437.47 359.859 438.077C359.157 438.684 358.164 439.013 356.882 439.065V441.522H355.985V439.078C354.711 439.026 353.723 438.697 353.021 438.09C352.327 437.475 351.981 436.634 351.981 435.568C351.981 434.511 352.327 433.683 353.021 433.085C353.723 432.487 354.711 432.162 355.985 432.11V429.354H356.882V432.11C358.164 432.171 359.157 432.5 359.859 433.098C360.561 433.696 360.912 434.519 360.912 435.568ZM352.891 435.568C352.891 436.383 353.151 437.02 353.671 437.479C354.199 437.938 354.971 438.198 355.985 438.259V432.929C354.979 432.981 354.212 433.237 353.684 433.696C353.155 434.147 352.891 434.771 352.891 435.568ZM356.882 438.259C357.896 438.207 358.667 437.951 359.196 437.492C359.733 437.033 360.002 436.391 360.002 435.568C360.002 434.762 359.733 434.134 359.196 433.683C358.667 433.232 357.896 432.981 356.882 432.929V438.259ZM362.864 432.162H363.787V437.596L368.35 432.162H369.169V439H368.246V433.566L363.696 439H362.864V432.162ZM376.65 432.981H372.737V439H371.814V432.162H376.65V432.981ZM377.984 432.162H378.907V437.596L383.47 432.162H384.289V439H383.366V433.566L378.816 439H377.984V432.162ZM390.122 435.438C390.608 435.551 390.98 435.746 391.24 436.023C391.509 436.3 391.643 436.638 391.643 437.037C391.643 437.436 391.505 437.791 391.227 438.103C390.959 438.415 390.59 438.658 390.122 438.831C389.654 438.996 389.139 439.078 388.575 439.078C388.081 439.078 387.596 439.009 387.119 438.87C386.643 438.723 386.227 438.51 385.871 438.233L386.183 437.544C386.495 437.778 386.859 437.96 387.275 438.09C387.691 438.22 388.112 438.285 388.536 438.285C389.169 438.285 389.685 438.168 390.083 437.934C390.491 437.691 390.694 437.366 390.694 436.959C390.694 436.595 390.53 436.313 390.2 436.114C389.871 435.906 389.42 435.802 388.848 435.802H387.678V435.126H388.796C389.308 435.126 389.719 435.031 390.031 434.84C390.343 434.641 390.499 434.376 390.499 434.047C390.499 433.683 390.322 433.397 389.966 433.189C389.62 432.981 389.165 432.877 388.601 432.877C387.865 432.877 387.137 433.063 386.417 433.436L386.157 432.721C386.972 432.296 387.817 432.084 388.692 432.084C389.212 432.084 389.68 432.162 390.096 432.318C390.521 432.465 390.85 432.678 391.084 432.955C391.327 433.232 391.448 433.553 391.448 433.917C391.448 434.264 391.327 434.571 391.084 434.84C390.85 435.109 390.53 435.308 390.122 435.438ZM401.383 432.162V439H400.538V433.592L397.769 438.168H397.353L394.584 433.579V439H393.739V432.162H394.675L397.574 437.089L400.525 432.162H401.383ZM406.362 432.11C407.255 432.11 407.94 432.335 408.416 432.786C408.893 433.228 409.131 433.887 409.131 434.762V439H408.247V437.934C408.039 438.289 407.732 438.567 407.324 438.766C406.926 438.965 406.449 439.065 405.894 439.065C405.132 439.065 404.525 438.883 404.074 438.519C403.624 438.155 403.398 437.674 403.398 437.076C403.398 436.495 403.606 436.027 404.022 435.672C404.447 435.317 405.119 435.139 406.037 435.139H408.208V434.723C408.208 434.134 408.044 433.687 407.714 433.384C407.385 433.072 406.904 432.916 406.271 432.916C405.838 432.916 405.422 432.99 405.023 433.137C404.625 433.276 404.282 433.471 403.996 433.722L403.58 433.033C403.927 432.738 404.343 432.513 404.828 432.357C405.314 432.192 405.825 432.11 406.362 432.11ZM406.037 438.337C406.557 438.337 407.004 438.22 407.376 437.986C407.749 437.743 408.026 437.397 408.208 436.946V435.828H406.063C404.893 435.828 404.308 436.235 404.308 437.05C404.308 437.449 404.46 437.765 404.763 437.999C405.067 438.224 405.491 438.337 406.037 438.337ZM411.653 439.065C411.463 439.065 411.298 438.996 411.159 438.857C411.029 438.718 410.964 438.549 410.964 438.35C410.964 438.151 411.029 437.986 411.159 437.856C411.298 437.717 411.463 437.648 411.653 437.648C411.844 437.648 412.009 437.717 412.147 437.856C412.286 437.986 412.355 438.151 412.355 438.35C412.355 438.549 412.286 438.718 412.147 438.857C412.009 438.996 411.844 439.065 411.653 439.065ZM218.929 447.307C219.562 447.437 220.043 447.693 220.372 448.074C220.701 448.447 220.866 448.936 220.866 449.543C220.866 450.332 220.584 450.938 220.021 451.363C219.466 451.788 218.647 452 217.564 452H213.534V442.9H217.317C218.288 442.9 219.046 443.099 219.592 443.498C220.138 443.897 220.411 444.473 220.411 445.227C220.411 445.738 220.281 446.172 220.021 446.527C219.761 446.874 219.397 447.134 218.929 447.307ZM214.483 447.021H217.265C217.967 447.021 218.504 446.878 218.877 446.592C219.258 446.306 219.449 445.89 219.449 445.344C219.449 444.798 219.258 444.382 218.877 444.096C218.504 443.81 217.967 443.667 217.265 443.667H214.483V447.021ZM217.564 451.233C219.133 451.233 219.917 450.648 219.917 449.478C219.917 448.334 219.133 447.762 217.564 447.762H214.483V451.233H217.564ZM225.91 452.065C225.234 452.065 224.628 451.918 224.09 451.623C223.562 451.328 223.146 450.917 222.842 450.388C222.539 449.851 222.387 449.248 222.387 448.581C222.387 447.914 222.539 447.316 222.842 446.787C223.146 446.258 223.562 445.847 224.09 445.552C224.628 445.257 225.234 445.11 225.91 445.11C226.5 445.11 227.024 445.227 227.483 445.461C227.951 445.686 228.32 446.02 228.588 446.462L227.899 446.93C227.674 446.592 227.388 446.341 227.041 446.176C226.695 446.003 226.318 445.916 225.91 445.916C225.416 445.916 224.97 446.029 224.571 446.254C224.181 446.471 223.874 446.783 223.648 447.19C223.432 447.597 223.323 448.061 223.323 448.581C223.323 449.11 223.432 449.578 223.648 449.985C223.874 450.384 224.181 450.696 224.571 450.921C224.97 451.138 225.416 451.246 225.91 451.246C226.318 451.246 226.695 451.164 227.041 450.999C227.388 450.834 227.674 450.583 227.899 450.245L228.588 450.713C228.32 451.155 227.951 451.493 227.483 451.727C227.015 451.952 226.491 452.065 225.91 452.065ZM236.241 448.867H230.521C230.573 449.578 230.846 450.154 231.34 450.596C231.834 451.029 232.458 451.246 233.212 451.246C233.637 451.246 234.027 451.172 234.382 451.025C234.738 450.869 235.045 450.644 235.305 450.349L235.825 450.947C235.522 451.311 235.141 451.588 234.681 451.779C234.231 451.97 233.732 452.065 233.186 452.065C232.484 452.065 231.86 451.918 231.314 451.623C230.777 451.32 230.357 450.904 230.053 450.375C229.75 449.846 229.598 449.248 229.598 448.581C229.598 447.914 229.741 447.316 230.027 446.787C230.322 446.258 230.721 445.847 231.223 445.552C231.735 445.257 232.307 445.11 232.939 445.11C233.572 445.11 234.14 445.257 234.642 445.552C235.145 445.847 235.539 446.258 235.825 446.787C236.111 447.307 236.254 447.905 236.254 448.581L236.241 448.867ZM232.939 445.903C232.281 445.903 231.726 446.115 231.275 446.54C230.833 446.956 230.582 447.502 230.521 448.178H235.37C235.31 447.502 235.054 446.956 234.603 446.54C234.161 446.115 233.607 445.903 232.939 445.903ZM245.977 452L243.806 449.14L241.622 452H240.582L243.286 448.49L240.712 445.162H241.752L243.806 447.84L245.86 445.162H246.874L244.3 448.49L247.03 452H245.977ZM252.065 445.11C252.707 445.11 253.287 445.257 253.807 445.552C254.327 445.838 254.735 446.245 255.029 446.774C255.324 447.303 255.471 447.905 255.471 448.581C255.471 449.266 255.324 449.872 255.029 450.401C254.735 450.93 254.327 451.341 253.807 451.636C253.296 451.922 252.715 452.065 252.065 452.065C251.511 452.065 251.008 451.952 250.557 451.727C250.115 451.493 249.751 451.155 249.465 450.713V454.522H248.542V445.162H249.426V446.514C249.704 446.063 250.068 445.717 250.518 445.474C250.978 445.231 251.493 445.11 252.065 445.11ZM252 451.246C252.477 451.246 252.91 451.138 253.3 450.921C253.69 450.696 253.994 450.379 254.21 449.972C254.436 449.565 254.548 449.101 254.548 448.581C254.548 448.061 254.436 447.602 254.21 447.203C253.994 446.796 253.69 446.479 253.3 446.254C252.91 446.029 252.477 445.916 252 445.916C251.515 445.916 251.077 446.029 250.687 446.254C250.306 446.479 250.003 446.796 249.777 447.203C249.561 447.602 249.452 448.061 249.452 448.581C249.452 449.101 249.561 449.565 249.777 449.972C250.003 450.379 250.306 450.696 250.687 450.921C251.077 451.138 251.515 451.246 252 451.246ZM263.435 448.867H257.715C257.767 449.578 258.04 450.154 258.534 450.596C259.028 451.029 259.652 451.246 260.406 451.246C260.83 451.246 261.22 451.172 261.576 451.025C261.931 450.869 262.239 450.644 262.499 450.349L263.019 450.947C262.715 451.311 262.334 451.588 261.875 451.779C261.424 451.97 260.926 452.065 260.38 452.065C259.678 452.065 259.054 451.918 258.508 451.623C257.97 451.32 257.55 450.904 257.247 450.375C256.943 449.846 256.792 449.248 256.792 448.581C256.792 447.914 256.935 447.316 257.221 446.787C257.515 446.258 257.914 445.847 258.417 445.552C258.928 445.257 259.5 445.11 260.133 445.11C260.765 445.11 261.333 445.257 261.836 445.552C262.338 445.847 262.733 446.258 263.019 446.787C263.305 447.307 263.448 447.905 263.448 448.581L263.435 448.867ZM260.133 445.903C259.474 445.903 258.919 446.115 258.469 446.54C258.027 446.956 257.775 447.502 257.715 448.178H262.564C262.503 447.502 262.247 446.956 261.797 446.54C261.355 446.115 260.8 445.903 260.133 445.903ZM265.491 445.162H266.414V448.191H270.717V445.162H271.64V452H270.717V448.984H266.414V452H265.491V445.162ZM277.084 452.065C276.426 452.065 275.832 451.918 275.303 451.623C274.775 451.32 274.359 450.904 274.055 450.375C273.752 449.846 273.6 449.248 273.6 448.581C273.6 447.914 273.752 447.316 274.055 446.787C274.359 446.258 274.775 445.847 275.303 445.552C275.832 445.257 276.426 445.11 277.084 445.11C277.743 445.11 278.337 445.257 278.865 445.552C279.394 445.847 279.806 446.258 280.1 446.787C280.404 447.316 280.555 447.914 280.555 448.581C280.555 449.248 280.404 449.846 280.1 450.375C279.806 450.904 279.394 451.32 278.865 451.623C278.337 451.918 277.743 452.065 277.084 452.065ZM277.084 451.246C277.57 451.246 278.003 451.138 278.384 450.921C278.774 450.696 279.078 450.379 279.294 449.972C279.511 449.565 279.619 449.101 279.619 448.581C279.619 448.061 279.511 447.597 279.294 447.19C279.078 446.783 278.774 446.471 278.384 446.254C278.003 446.029 277.57 445.916 277.084 445.916C276.599 445.916 276.161 446.029 275.771 446.254C275.39 446.471 275.087 446.783 274.861 447.19C274.645 447.597 274.536 448.061 274.536 448.581C274.536 449.101 274.645 449.565 274.861 449.972C275.087 450.379 275.39 450.696 275.771 450.921C276.161 451.138 276.599 451.246 277.084 451.246ZM286.883 448.464C287.81 448.681 288.274 449.24 288.274 450.141C288.274 450.739 288.053 451.198 287.611 451.519C287.169 451.84 286.51 452 285.635 452H282.528V445.162H285.544C286.324 445.162 286.935 445.314 287.377 445.617C287.819 445.92 288.04 446.354 288.04 446.917C288.04 447.29 287.936 447.61 287.728 447.879C287.529 448.139 287.247 448.334 286.883 448.464ZM283.425 448.204H285.479C286.008 448.204 286.411 448.104 286.688 447.905C286.974 447.706 287.117 447.415 287.117 447.034C287.117 446.653 286.974 446.367 286.688 446.176C286.411 445.985 286.008 445.89 285.479 445.89H283.425V448.204ZM285.596 451.272C286.185 451.272 286.627 451.177 286.922 450.986C287.217 450.795 287.364 450.496 287.364 450.089C287.364 449.682 287.23 449.383 286.961 449.192C286.692 448.993 286.268 448.893 285.687 448.893H283.425V451.272H285.596ZM293.258 452.065C292.599 452.065 292.006 451.918 291.477 451.623C290.948 451.32 290.532 450.904 290.229 450.375C289.926 449.846 289.774 449.248 289.774 448.581C289.774 447.914 289.926 447.316 290.229 446.787C290.532 446.258 290.948 445.847 291.477 445.552C292.006 445.257 292.599 445.11 293.258 445.11C293.917 445.11 294.51 445.257 295.039 445.552C295.568 445.847 295.979 446.258 296.274 446.787C296.577 447.316 296.729 447.914 296.729 448.581C296.729 449.248 296.577 449.846 296.274 450.375C295.979 450.904 295.568 451.32 295.039 451.623C294.51 451.918 293.917 452.065 293.258 452.065ZM293.258 451.246C293.743 451.246 294.177 451.138 294.558 450.921C294.948 450.696 295.251 450.379 295.468 449.972C295.685 449.565 295.793 449.101 295.793 448.581C295.793 448.061 295.685 447.597 295.468 447.19C295.251 446.783 294.948 446.471 294.558 446.254C294.177 446.029 293.743 445.916 293.258 445.916C292.773 445.916 292.335 446.029 291.945 446.254C291.564 446.471 291.26 446.783 291.035 447.19C290.818 447.597 290.71 448.061 290.71 448.581C290.71 449.101 290.818 449.565 291.035 449.972C291.26 450.379 291.564 450.696 291.945 450.921C292.335 451.138 292.773 451.246 293.258 451.246ZM298.576 452.065C298.386 452.065 298.221 451.996 298.082 451.857C297.952 451.718 297.887 451.549 297.887 451.35C297.887 451.151 297.952 450.986 298.082 450.856C298.221 450.717 298.386 450.648 298.576 450.648C298.767 450.648 298.932 450.717 299.07 450.856C299.209 450.986 299.278 451.151 299.278 451.35C299.278 451.549 299.209 451.718 299.07 451.857C298.932 451.996 298.767 452.065 298.576 452.065ZM314.34 442.9V452H313.417V444.72L309.842 450.843H309.387L305.812 444.759V452H304.889V442.9H305.682L309.634 449.647L313.547 442.9H314.34ZM322.997 445.162L319.578 452.819C319.301 453.46 318.98 453.915 318.616 454.184C318.252 454.453 317.814 454.587 317.303 454.587C316.974 454.587 316.666 454.535 316.38 454.431C316.094 454.327 315.847 454.171 315.639 453.963L316.068 453.274C316.415 453.621 316.831 453.794 317.316 453.794C317.628 453.794 317.892 453.707 318.109 453.534C318.334 453.361 318.542 453.066 318.733 452.65L319.032 451.987L315.977 445.162H316.939L319.513 450.973L322.087 445.162H322.997ZM330.035 448.958H328.553V452H327.63V448.958H326.148L324.055 452H322.95L325.407 448.477L323.145 445.162H324.146L326.148 448.165H327.63V445.162H328.553V448.165H330.035L332.05 445.162H333.051L330.789 448.49L333.246 452H332.141L330.035 448.958ZM337.401 452.065C336.725 452.065 336.118 451.918 335.581 451.623C335.052 451.328 334.636 450.917 334.333 450.388C334.029 449.851 333.878 449.248 333.878 448.581C333.878 447.914 334.029 447.316 334.333 446.787C334.636 446.258 335.052 445.847 335.581 445.552C336.118 445.257 336.725 445.11 337.401 445.11C337.99 445.11 338.514 445.227 338.974 445.461C339.442 445.686 339.81 446.02 340.079 446.462L339.39 446.93C339.164 446.592 338.878 446.341 338.532 446.176C338.185 446.003 337.808 445.916 337.401 445.916C336.907 445.916 336.46 446.029 336.062 446.254C335.672 446.471 335.364 446.783 335.139 447.19C334.922 447.597 334.814 448.061 334.814 448.581C334.814 449.11 334.922 449.578 335.139 449.985C335.364 450.384 335.672 450.696 336.062 450.921C336.46 451.138 336.907 451.246 337.401 451.246C337.808 451.246 338.185 451.164 338.532 450.999C338.878 450.834 339.164 450.583 339.39 450.245L340.079 450.713C339.81 451.155 339.442 451.493 338.974 451.727C338.506 451.952 337.981 452.065 337.401 452.065ZM344.349 448.958H342.789V452H341.866V445.162H342.789V448.165H344.362L346.767 445.162H347.768L345.077 448.477L347.963 452H346.871L344.349 448.958ZM349.419 445.162H350.342V450.596L354.905 445.162H355.724V452H354.801V446.566L350.251 452H349.419V445.162ZM364.35 448.867H358.63C358.682 449.578 358.955 450.154 359.449 450.596C359.943 451.029 360.567 451.246 361.321 451.246C361.745 451.246 362.135 451.172 362.491 451.025C362.846 450.869 363.154 450.644 363.414 450.349L363.934 450.947C363.63 451.311 363.249 451.588 362.79 451.779C362.339 451.97 361.841 452.065 361.295 452.065C360.593 452.065 359.969 451.918 359.423 451.623C358.885 451.32 358.465 450.904 358.162 450.375C357.858 449.846 357.707 449.248 357.707 448.581C357.707 447.914 357.85 447.316 358.136 446.787C358.43 446.258 358.829 445.847 359.332 445.552C359.843 445.257 360.415 445.11 361.048 445.11C361.68 445.11 362.248 445.257 362.751 445.552C363.253 445.847 363.648 446.258 363.934 446.787C364.22 447.307 364.363 447.905 364.363 448.581L364.35 448.867ZM361.048 445.903C360.389 445.903 359.834 446.115 359.384 446.54C358.942 446.956 358.69 447.502 358.63 448.178H363.479C363.418 447.502 363.162 446.956 362.712 446.54C362.27 446.115 361.715 445.903 361.048 445.903ZM375.944 445.162V452H375.021V445.981H370.731V452H369.808V445.162H375.944ZM382.091 445.11C382.732 445.11 383.313 445.257 383.833 445.552C384.353 445.838 384.76 446.245 385.055 446.774C385.35 447.303 385.497 447.905 385.497 448.581C385.497 449.266 385.35 449.872 385.055 450.401C384.76 450.93 384.353 451.341 383.833 451.636C383.322 451.922 382.741 452.065 382.091 452.065C381.536 452.065 381.034 451.952 380.583 451.727C380.141 451.493 379.777 451.155 379.491 450.713V454.522H378.568V445.162H379.452V446.514C379.729 446.063 380.093 445.717 380.544 445.474C381.003 445.231 381.519 445.11 382.091 445.11ZM382.026 451.246C382.503 451.246 382.936 451.138 383.326 450.921C383.716 450.696 384.019 450.379 384.236 449.972C384.461 449.565 384.574 449.101 384.574 448.581C384.574 448.061 384.461 447.602 384.236 447.203C384.019 446.796 383.716 446.479 383.326 446.254C382.936 446.029 382.503 445.916 382.026 445.916C381.541 445.916 381.103 446.029 380.713 446.254C380.332 446.479 380.028 446.796 379.803 447.203C379.586 447.602 379.478 448.061 379.478 448.581C379.478 449.101 379.586 449.565 379.803 449.972C380.028 450.379 380.332 450.696 380.713 450.921C381.103 451.138 381.541 451.246 382.026 451.246ZM389.795 445.11C390.688 445.11 391.372 445.335 391.849 445.786C392.326 446.228 392.564 446.887 392.564 447.762V452H391.68V450.934C391.472 451.289 391.164 451.567 390.757 451.766C390.358 451.965 389.882 452.065 389.327 452.065C388.564 452.065 387.958 451.883 387.507 451.519C387.056 451.155 386.831 450.674 386.831 450.076C386.831 449.495 387.039 449.027 387.455 448.672C387.88 448.317 388.551 448.139 389.47 448.139H391.641V447.723C391.641 447.134 391.476 446.687 391.147 446.384C390.818 446.072 390.337 445.916 389.704 445.916C389.271 445.916 388.855 445.99 388.456 446.137C388.057 446.276 387.715 446.471 387.429 446.722L387.013 446.033C387.36 445.738 387.776 445.513 388.261 445.357C388.746 445.192 389.258 445.11 389.795 445.11ZM389.47 451.337C389.99 451.337 390.436 451.22 390.809 450.986C391.182 450.743 391.459 450.397 391.641 449.946V448.828H389.496C388.326 448.828 387.741 449.235 387.741 450.05C387.741 450.449 387.893 450.765 388.196 450.999C388.499 451.224 388.924 451.337 389.47 451.337ZM399.376 448.464C400.303 448.681 400.767 449.24 400.767 450.141C400.767 450.739 400.546 451.198 400.104 451.519C399.662 451.84 399.003 452 398.128 452H395.021V445.162H398.037C398.817 445.162 399.428 445.314 399.87 445.617C400.312 445.92 400.533 446.354 400.533 446.917C400.533 447.29 400.429 447.61 400.221 447.879C400.022 448.139 399.74 448.334 399.376 448.464ZM395.918 448.204H397.972C398.501 448.204 398.904 448.104 399.181 447.905C399.467 447.706 399.61 447.415 399.61 447.034C399.61 446.653 399.467 446.367 399.181 446.176C398.904 445.985 398.501 445.89 397.972 445.89H395.918V448.204ZM398.089 451.272C398.678 451.272 399.12 451.177 399.415 450.986C399.71 450.795 399.857 450.496 399.857 450.089C399.857 449.682 399.723 449.383 399.454 449.192C399.185 448.993 398.761 448.893 398.18 448.893H395.918V451.272H398.089ZM402.93 445.162H403.853V450.596L408.416 445.162H409.235V452H408.312V446.566L403.762 452H402.93V445.162ZM417.47 445.162V452H416.547V445.981H413.271L413.18 447.671C413.111 449.092 412.946 450.184 412.686 450.947C412.426 451.71 411.963 452.091 411.295 452.091C411.113 452.091 410.892 452.056 410.632 451.987L410.697 451.194C410.853 451.229 410.962 451.246 411.022 451.246C411.378 451.246 411.646 451.081 411.828 450.752C412.01 450.423 412.132 450.015 412.192 449.53C412.253 449.045 412.305 448.403 412.348 447.606L412.465 445.162H417.47ZM422.447 445.11C423.34 445.11 424.025 445.335 424.501 445.786C424.978 446.228 425.216 446.887 425.216 447.762V452H424.332V450.934C424.124 451.289 423.817 451.567 423.409 451.766C423.011 451.965 422.534 452.065 421.979 452.065C421.217 452.065 420.61 451.883 420.159 451.519C419.709 451.155 419.483 450.674 419.483 450.076C419.483 449.495 419.691 449.027 420.107 448.672C420.532 448.317 421.204 448.139 422.122 448.139H424.293V447.723C424.293 447.134 424.129 446.687 423.799 446.384C423.47 446.072 422.989 445.916 422.356 445.916C421.923 445.916 421.507 445.99 421.108 446.137C420.71 446.276 420.367 446.471 420.081 446.722L419.665 446.033C420.012 445.738 420.428 445.513 420.913 445.357C421.399 445.192 421.91 445.11 422.447 445.11ZM422.122 451.337C422.642 451.337 423.089 451.22 423.461 450.986C423.834 450.743 424.111 450.397 424.293 449.946V448.828H422.148C420.978 448.828 420.393 449.235 420.393 450.05C420.393 450.449 420.545 450.765 420.848 450.999C421.152 451.224 421.576 451.337 422.122 451.337ZM427.738 452.065C427.548 452.065 427.383 451.996 427.244 451.857C427.114 451.718 427.049 451.549 427.049 451.35C427.049 451.151 427.114 450.986 427.244 450.856C427.383 450.717 427.548 450.648 427.738 450.648C427.929 450.648 428.094 450.717 428.232 450.856C428.371 450.986 428.44 451.151 428.44 451.35C428.44 451.549 428.371 451.718 428.232 451.857C428.094 451.996 427.929 452.065 427.738 452.065Z" fill="white"/>
<path d="M220.265 412.6L223.37 418H219.38L217.37 414.205H216.38V418H212.84V407.5H216.38V411.415H217.46L219.695 407.5H223.385L220.265 412.6ZM228.041 418.15C227.131 418.15 226.311 417.97 225.581 417.61C224.861 417.24 224.296 416.735 223.886 416.095C223.476 415.445 223.271 414.71 223.271 413.89C223.271 413.07 223.476 412.34 223.886 411.7C224.296 411.05 224.861 410.545 225.581 410.185C226.311 409.825 227.131 409.645 228.041 409.645C228.961 409.645 229.781 409.825 230.501 410.185C231.231 410.545 231.796 411.05 232.196 411.7C232.606 412.34 232.811 413.07 232.811 413.89C232.811 414.71 232.606 415.445 232.196 416.095C231.796 416.735 231.231 417.24 230.501 417.61C229.781 417.97 228.961 418.15 228.041 418.15ZM228.041 415.51C228.431 415.51 228.751 415.37 229.001 415.09C229.251 414.8 229.376 414.4 229.376 413.89C229.376 413.38 229.251 412.985 229.001 412.705C228.751 412.425 228.431 412.285 228.041 412.285C227.651 412.285 227.331 412.425 227.081 412.705C226.831 412.985 226.706 413.38 226.706 413.89C226.706 414.4 226.831 414.8 227.081 415.09C227.331 415.37 227.651 415.51 228.041 415.51ZM241.764 418L241.749 414.325L240.009 417.355H238.584L236.904 414.25V418H233.859V409.795H237.444L239.394 413.62L241.599 409.795H244.779L244.809 418H241.764ZM255.189 409.795V418H251.814V412.435H249.759V418H246.384V409.795H255.189ZM265.634 409.795V418H262.244V412.435H260.699L260.654 413.5C260.614 414.56 260.504 415.43 260.324 416.11C260.144 416.79 259.844 417.315 259.424 417.685C259.014 418.045 258.449 418.225 257.729 418.225C257.279 418.225 256.754 418.15 256.154 418L256.289 415.255C256.449 415.275 256.564 415.285 256.634 415.285C257.044 415.285 257.314 415.14 257.444 414.85C257.574 414.55 257.654 414.055 257.684 413.365L257.804 409.795H265.634ZM275.854 413.89C275.854 413.94 275.839 414.205 275.809 414.685H270.109C270.229 414.995 270.429 415.235 270.709 415.405C270.989 415.565 271.339 415.645 271.759 415.645C272.119 415.645 272.419 415.6 272.659 415.51C272.909 415.42 273.179 415.265 273.469 415.045L275.239 416.83C274.439 417.71 273.244 418.15 271.654 418.15C270.664 418.15 269.794 417.97 269.044 417.61C268.294 417.24 267.714 416.73 267.304 416.08C266.894 415.43 266.689 414.7 266.689 413.89C266.689 413.07 266.889 412.34 267.289 411.7C267.699 411.05 268.254 410.545 268.954 410.185C269.664 409.825 270.459 409.645 271.339 409.645C272.169 409.645 272.924 409.81 273.604 410.14C274.294 410.47 274.839 410.955 275.239 411.595C275.649 412.235 275.854 413 275.854 413.89ZM271.369 411.955C271.019 411.955 270.729 412.05 270.499 412.24C270.269 412.43 270.119 412.7 270.049 413.05H272.689C272.619 412.71 272.469 412.445 272.239 412.255C272.009 412.055 271.719 411.955 271.369 411.955ZM281.107 415.27H280.462V418H277.072V409.795H280.462V412.675H281.197L282.997 409.795H286.567L283.927 413.725L286.732 418H282.742L281.107 415.27ZM295.257 412.435H292.752V418H289.377V412.435H286.872V409.795H295.257V412.435ZM304.765 415.27H304.12V418H300.73V409.795H304.12V412.675H304.855L306.655 409.795H310.225L307.585 413.725L310.39 418H306.4L304.765 415.27ZM311.145 409.795H314.52V412.675H316.83V409.795H320.205V418H316.83V415.33H314.52V418H311.145V409.795ZM321.794 409.795H325.169V413.5L328.004 409.795H331.124V418H327.749V414.28L324.929 418H321.794V409.795ZM339.877 412.435H336.082V418H332.707V409.795H339.877V412.435ZM354.859 418L354.829 413.215L352.549 417.055H350.989L348.709 413.38V418H345.484V407.5H348.394L351.814 413.095L355.144 407.5H358.054L358.084 418H354.859ZM363.287 409.645C364.727 409.645 365.827 409.97 366.587 410.62C367.347 411.26 367.727 412.25 367.727 413.59V418H364.577V416.92C364.187 417.74 363.412 418.15 362.252 418.15C361.602 418.15 361.047 418.04 360.587 417.82C360.137 417.59 359.792 417.285 359.552 416.905C359.322 416.515 359.207 416.08 359.207 415.6C359.207 414.79 359.517 414.175 360.137 413.755C360.757 413.335 361.697 413.125 362.957 413.125H364.322C364.212 412.485 363.697 412.165 362.777 412.165C362.407 412.165 362.032 412.225 361.652 412.345C361.272 412.455 360.947 412.61 360.677 412.81L359.597 410.575C360.067 410.285 360.632 410.06 361.292 409.9C361.962 409.73 362.627 409.645 363.287 409.645ZM363.272 416.11C363.512 416.11 363.727 416.045 363.917 415.915C364.107 415.785 364.247 415.59 364.337 415.33V414.76H363.497C362.807 414.76 362.462 414.99 362.462 415.45C362.462 415.64 362.532 415.8 362.672 415.93C362.822 416.05 363.022 416.11 363.272 416.11ZM374.583 409.645C375.303 409.645 375.963 409.82 376.563 410.17C377.173 410.51 377.653 411.005 378.003 411.655C378.363 412.305 378.543 413.055 378.543 413.905C378.543 414.755 378.363 415.505 378.003 416.155C377.653 416.795 377.173 417.29 376.563 417.64C375.963 417.98 375.303 418.15 374.583 418.15C373.673 418.15 372.978 417.915 372.498 417.445V420.91H369.108V409.795H372.333V410.47C372.823 409.92 373.573 409.645 374.583 409.645ZM373.773 415.51C374.163 415.51 374.483 415.37 374.733 415.09C374.983 414.81 375.108 414.415 375.108 413.905C375.108 413.395 374.983 413 374.733 412.72C374.483 412.43 374.163 412.285 373.773 412.285C373.383 412.285 373.063 412.43 372.813 412.72C372.563 413 372.438 413.395 372.438 413.905C372.438 414.415 372.563 414.81 372.813 415.09C373.063 415.37 373.383 415.51 373.773 415.51ZM383.676 415.27H383.031V418H379.641V409.795H383.031V412.675H383.766L385.566 409.795H389.136L386.496 413.725L389.301 418H385.311L383.676 415.27ZM393.404 409.645C394.844 409.645 395.944 409.97 396.704 410.62C397.464 411.26 397.844 412.25 397.844 413.59V418H394.694V416.92C394.304 417.74 393.529 418.15 392.369 418.15C391.719 418.15 391.164 418.04 390.704 417.82C390.254 417.59 389.909 417.285 389.669 416.905C389.439 416.515 389.324 416.08 389.324 415.6C389.324 414.79 389.634 414.175 390.254 413.755C390.874 413.335 391.814 413.125 393.074 413.125H394.439C394.329 412.485 393.814 412.165 392.894 412.165C392.524 412.165 392.149 412.225 391.769 412.345C391.389 412.455 391.064 412.61 390.794 412.81L389.714 410.575C390.184 410.285 390.749 410.06 391.409 409.9C392.079 409.73 392.744 409.645 393.404 409.645ZM393.389 416.11C393.629 416.11 393.844 416.045 394.034 415.915C394.224 415.785 394.364 415.59 394.454 415.33V414.76H393.614C392.924 414.76 392.579 414.99 392.579 415.45C392.579 415.64 392.649 415.8 392.789 415.93C392.939 416.05 393.139 416.11 393.389 416.11ZM413.233 418L413.203 413.215L410.923 417.055H409.363L407.083 413.38V418H403.858V407.5H406.768L410.188 413.095L413.518 407.5H416.428L416.458 418H413.233ZM421.451 409.585C422.381 409.585 423.211 409.77 423.941 410.14C424.671 410.5 425.236 411.01 425.636 411.67C426.046 412.32 426.251 413.06 426.251 413.89C426.251 414.73 426.046 415.48 425.636 416.14C425.236 416.79 424.671 417.3 423.941 417.67C423.211 418.03 422.381 418.21 421.451 418.21C420.581 418.21 419.806 418.065 419.126 417.775C418.446 417.475 417.881 417.05 417.431 416.5L419.366 414.76C419.926 415.4 420.571 415.72 421.301 415.72C422.011 415.72 422.531 415.475 422.861 414.985H420.266V412.78H422.846C422.696 412.55 422.486 412.375 422.216 412.255C421.956 412.125 421.651 412.06 421.301 412.06C420.571 412.06 419.926 412.38 419.366 413.02L417.431 411.295C417.881 410.745 418.446 410.325 419.126 410.035C419.806 409.735 420.581 409.585 421.451 409.585ZM427.321 409.795H430.696V412.675H433.006V409.795H436.381V418H433.006V415.33H430.696V418H427.321V409.795ZM442.276 418.15C441.346 418.15 440.511 417.97 439.771 417.61C439.041 417.25 438.466 416.745 438.046 416.095C437.636 415.445 437.431 414.71 437.431 413.89C437.431 413.07 437.636 412.34 438.046 411.7C438.466 411.05 439.041 410.545 439.771 410.185C440.511 409.825 441.346 409.645 442.276 409.645C443.276 409.645 444.131 409.86 444.841 410.29C445.551 410.72 446.041 411.315 446.311 412.075L443.686 413.365C443.366 412.645 442.891 412.285 442.261 412.285C441.861 412.285 441.526 412.425 441.256 412.705C440.996 412.985 440.866 413.38 440.866 413.89C440.866 414.41 440.996 414.81 441.256 415.09C441.526 415.37 441.861 415.51 442.261 415.51C442.891 415.51 443.366 415.15 443.686 414.43L446.311 415.72C446.041 416.48 445.551 417.075 444.841 417.505C444.131 417.935 443.276 418.15 442.276 418.15ZM451.4 418.15C450.49 418.15 449.67 417.97 448.94 417.61C448.22 417.24 447.655 416.735 447.245 416.095C446.835 415.445 446.63 414.71 446.63 413.89C446.63 413.07 446.835 412.34 447.245 411.7C447.655 411.05 448.22 410.545 448.94 410.185C449.67 409.825 450.49 409.645 451.4 409.645C452.32 409.645 453.14 409.825 453.86 410.185C454.59 410.545 455.155 411.05 455.555 411.7C455.965 412.34 456.17 413.07 456.17 413.89C456.17 414.71 455.965 415.445 455.555 416.095C455.155 416.735 454.59 417.24 453.86 417.61C453.14 417.97 452.32 418.15 451.4 418.15ZM451.4 415.51C451.79 415.51 452.11 415.37 452.36 415.09C452.61 414.8 452.735 414.4 452.735 413.89C452.735 413.38 452.61 412.985 452.36 412.705C452.11 412.425 451.79 412.285 451.4 412.285C451.01 412.285 450.69 412.425 450.44 412.705C450.19 412.985 450.065 413.38 450.065 413.89C450.065 414.4 450.19 414.8 450.44 415.09C450.69 415.37 451.01 415.51 451.4 415.51ZM457.219 409.795H460.594V412.675H462.904V409.795H466.279V418H462.904V415.33H460.594V418H457.219V409.795ZM471.363 409.645C472.803 409.645 473.903 409.97 474.663 410.62C475.423 411.26 475.803 412.25 475.803 413.59V418H472.653V416.92C472.263 417.74 471.488 418.15 470.328 418.15C469.678 418.15 469.123 418.04 468.663 417.82C468.213 417.59 467.868 417.285 467.628 416.905C467.398 416.515 467.283 416.08 467.283 415.6C467.283 414.79 467.593 414.175 468.213 413.755C468.833 413.335 469.773 413.125 471.033 413.125H472.398C472.288 412.485 471.773 412.165 470.853 412.165C470.483 412.165 470.108 412.225 469.728 412.345C469.348 412.455 469.023 412.61 468.753 412.81L467.673 410.575C468.143 410.285 468.708 410.06 469.368 409.9C470.038 409.73 470.703 409.645 471.363 409.645ZM471.348 416.11C471.588 416.11 471.803 416.045 471.993 415.915C472.183 415.785 472.323 415.59 472.413 415.33V414.76H471.573C470.883 414.76 470.538 414.99 470.538 415.45C470.538 415.64 470.608 415.8 470.748 415.93C470.898 416.05 471.098 416.11 471.348 416.11Z" fill="white"/>
<path d="M441 473.5H461M461 473.5L452.25 465M461 473.5L452.25 482" stroke="white"/>
<defs>
<filter id="filter0_d_1_307" x="322" y="22" width="264.396" height="121.156" filterUnits="userSpaceOnUse" color-interpolation-filters="sRGB">
<feFlood flood-opacity="0" result="BackgroundImageFix"/>
<feColorMatrix in="SourceAlpha" type="matrix" values="0 0 0 0 0 0 0 0 0 0 0 0 0 0 0 0 0 0 127 0" result="hardAlpha"/>
<feOffset dx="-6" dy="6"/>
<feGaussianBlur stdDeviation="3.5"/>
<feColorMatrix type="matrix" values="0 0 0 0 0 0 0 0 0 0 0 0 0 0 0 0 0 0 0.91 0"/>
<feBlend mode="normal" in2="BackgroundImageFix" result="effect1_dropShadow_1_307"/>
<feBlend mode="normal" in="SourceGraphic" in2="effect1_dropShadow_1_307" result="shape"/>
</filter>
<filter id="filter1_d_1_307" x="91" y="0" width="264.396" height="121.156" filterUnits="userSpaceOnUse" color-interpolation-filters="sRGB">
<feFlood flood-opacity="0" result="BackgroundImageFix"/>
<feColorMatrix in="SourceAlpha" type="matrix" values="0 0 0 0 0 0 0 0 0 0 0 0 0 0 0 0 0 0 127 0" result="hardAlpha"/>
<feOffset dx="-6" dy="6"/>
<feGaussianBlur stdDeviation="3.5"/>
<feColorMatrix type="matrix" values="0 0 0 0 0 0 0 0 0 0 0 0 0 0 0 0 0 0 0.91 0"/>
<feBlend mode="normal" in2="BackgroundImageFix" result="effect1_dropShadow_1_307"/>
<feBlend mode="normal" in="SourceGraphic" in2="effect1_dropShadow_1_307" result="shape"/>
</filter>
<filter id="filter2_d_1_307" x="0" y="45.9999" width="646" height="386" filterUnits="userSpaceOnUse" color-interpolation-filters="sRGB">
<feFlood flood-opacity="0" result="BackgroundImageFix"/>
<feColorMatrix in="SourceAlpha" type="matrix" values="0 0 0 0 0 0 0 0 0 0 0 0 0 0 0 0 0 0 127 0" result="hardAlpha"/>
<feOffset dx="-6" dy="6"/>
<feGaussianBlur stdDeviation="3.5"/>
<feColorMatrix type="matrix" values="0 0 0 0 0 0 0 0 0 0 0 0 0 0 0 0 0 0 0.91 0"/>
<feBlend mode="normal" in2="BackgroundImageFix" result="effect1_dropShadow_1_307"/>
<feBlend mode="normal" in="SourceGraphic" in2="effect1_dropShadow_1_307" result="shape"/>
</filter>
<filter id="filter3_d_1_307" x="183" y="412" width="311" height="90" filterUnits="userSpaceOnUse" color-interpolation-filters="sRGB">
<feFlood flood-opacity="0" result="BackgroundImageFix"/>
<feColorMatrix in="SourceAlpha" type="matrix" values="0 0 0 0 0 0 0 0 0 0 0 0 0 0 0 0 0 0 127 0" result="hardAlpha"/>
<feOffset dx="-6" dy="6"/>
<feGaussianBlur stdDeviation="3.5"/>
<feColorMatrix type="matrix" values="0 0 0 0 0 0 0 0 0 0 0 0 0 0 0 0 0 0 0.91 0"/>
<feBlend mode="normal" in2="BackgroundImageFix" result="effect1_dropShadow_1_307"/>
<feBlend mode="normal" in="SourceGraphic" in2="effect1_dropShadow_1_307" result="shape"/>
</filter>
</defs>
</svg>
