<svg width="25" height="25" viewBox="0 0 25 25" fill="none" xmlns="http://www.w3.org/2000/svg">
<path d="M7.8125 4.53765V6.04895H22.6562V9.0406L20.9229 14.3611H7.3209L5.36777 0.757568H0.78125V2.26886H4.00723L5.96035 15.8724H22.0687L24.2188 9.27306V4.53765H7.8125Z" fill="#E16A00"/>
<path d="M8.6416 17.3962C7.81309 17.3972 7.01878 17.7159 6.43293 18.2825C5.84709 18.8492 5.51754 19.6175 5.5166 20.4188C5.5166 21.2205 5.84584 21.9893 6.43189 22.5561C7.01794 23.123 7.8128 23.4414 8.6416 23.4414C9.4704 23.4414 10.2653 23.123 10.8513 22.5561C11.4374 21.9893 11.7666 21.2205 11.7666 20.4188C11.7657 19.6175 11.4361 18.8492 10.8503 18.2825C10.2644 17.7159 9.47012 17.3971 8.6416 17.3962ZM8.6416 21.9301C8.33257 21.9301 8.03047 21.8415 7.77352 21.6754C7.51657 21.5094 7.3163 21.2733 7.19804 20.9972C7.07978 20.721 7.04884 20.4172 7.10912 20.124C7.16941 19.8308 7.31823 19.5615 7.53675 19.3502C7.75527 19.1388 8.03368 18.9949 8.33677 18.9366C8.63987 18.8783 8.95404 18.9082 9.23954 19.0226C9.52505 19.137 9.76908 19.3307 9.94077 19.5792C10.1125 19.8277 10.2041 20.1199 10.2041 20.4188C10.2036 20.8195 10.0388 21.2036 9.74591 21.487C9.45299 21.7703 9.05585 21.9297 8.6416 21.9301Z" fill="#E16A00"/>
<path d="M19.5791 17.3962C18.7506 17.3972 17.9563 17.7159 17.3704 18.2825C16.7846 18.8492 16.455 19.6175 16.4541 20.4188C16.4541 21.2205 16.7833 21.9893 17.3694 22.5561C17.9554 23.123 18.7503 23.4414 19.5791 23.4414C20.4079 23.4414 21.2028 23.123 21.7888 22.5561C22.3749 21.9893 22.7041 21.2205 22.7041 20.4188C22.7032 19.6175 22.3736 18.8492 21.7878 18.2825C21.2019 17.7159 20.4076 17.3971 19.5791 17.3962ZM19.5791 21.9301C19.2701 21.9301 18.968 21.8415 18.711 21.6754C18.4541 21.5094 18.2538 21.2733 18.1355 20.9972C18.0173 20.721 17.9863 20.4172 18.0466 20.124C18.1069 19.8308 18.2557 19.5615 18.4742 19.3502C18.6928 19.1388 18.9712 18.9949 19.2743 18.9366C19.5774 18.8783 19.8915 18.9082 20.177 19.0226C20.4626 19.137 20.7066 19.3307 20.8783 19.5792C21.05 19.8277 21.1416 20.1199 21.1416 20.4188C21.1411 20.8195 20.9763 21.2036 20.6834 21.487C20.3905 21.7703 19.9934 21.9297 19.5791 21.9301Z" fill="#E16A00"/>
</svg>
