<svg width="34" height="33" viewBox="0 0 34 33" fill="none" xmlns="http://www.w3.org/2000/svg">
<path d="M29.6748 11.4194C29.6605 10.378 29.4596 9.34694 29.0812 8.37238C28.753 7.55034 28.2518 6.80377 27.6095 6.18039C26.9672 5.55701 26.1981 5.07052 25.3511 4.752C24.3599 4.39087 23.3128 4.1956 22.2543 4.1745C20.8914 4.11538 20.4594 4.09888 16.9999 4.09888C13.5404 4.09888 13.0969 4.09888 11.744 4.1745C10.686 4.19575 9.63935 4.39102 8.64861 4.752C7.80152 5.0703 7.03222 5.55671 6.38992 6.18012C5.74762 6.80353 5.24647 7.55021 4.91852 8.37238C4.5457 9.33368 4.34495 10.3498 4.32494 11.3768C4.26402 12.7009 4.24561 13.1203 4.24561 16.478C4.24561 19.8358 4.24561 20.2648 4.32494 21.5793C4.34619 22.6078 4.54594 23.6225 4.91852 24.5864C5.24702 25.4083 5.74854 26.1547 6.39106 26.7778C7.03357 27.401 7.80295 27.8872 8.65002 28.2054C9.63805 28.581 10.6849 28.7903 11.7454 28.8241C13.1097 28.8833 13.5418 28.9011 17.0013 28.9011C20.4608 28.9011 20.9042 28.9011 22.2571 28.8241C23.3156 28.8039 24.3628 28.6091 25.3539 28.248C26.2007 27.9291 26.9697 27.4425 27.6119 26.8192C28.2541 26.1958 28.7555 25.4495 29.084 24.6276C29.4566 23.6651 29.6564 22.6504 29.6776 21.6205C29.7385 20.2978 29.7569 19.8784 29.7569 16.5193C29.7541 13.1615 29.7541 12.7353 29.6748 11.4194ZM16.9914 22.8278C13.3732 22.8278 10.4421 19.9829 10.4421 16.4711C10.4421 12.9594 13.3732 10.1145 16.9914 10.1145C18.7283 10.1145 20.3942 10.7842 21.6224 11.9763C22.8506 13.1684 23.5406 14.7852 23.5406 16.4711C23.5406 18.157 22.8506 19.7738 21.6224 20.9659C20.3942 22.158 18.7283 22.8278 16.9914 22.8278ZM23.8013 11.3616C22.9555 11.3616 22.2741 10.6989 22.2741 9.87938C22.2741 9.68482 22.3136 9.49216 22.3903 9.31241C22.467 9.13266 22.5795 8.96933 22.7212 8.83175C22.8629 8.69418 23.0312 8.58505 23.2164 8.51059C23.4016 8.43614 23.6001 8.39782 23.8006 8.39782C24.001 8.39782 24.1995 8.43614 24.3847 8.51059C24.5699 8.58505 24.7382 8.69418 24.8799 8.83175C25.0217 8.96933 25.1341 9.13266 25.2108 9.31241C25.2875 9.49216 25.327 9.68482 25.327 9.87938C25.327 10.6989 24.6442 11.3616 23.8013 11.3616Z" fill="#241400"/>
<path d="M16.9916 20.6003C19.3411 20.6003 21.2458 18.7516 21.2458 16.4712C21.2458 14.1907 19.3411 12.342 16.9916 12.342C14.642 12.342 12.7373 14.1907 12.7373 16.4712C12.7373 18.7516 14.642 20.6003 16.9916 20.6003Z" fill="#241400"/>
</svg>
