<svg width="35" height="33" viewBox="0 0 35 33" fill="none" xmlns="http://www.w3.org/2000/svg">
<g clip-path="url(#clip0_8_234)">
<path fill-rule="evenodd" clip-rule="evenodd" d="M35 16.5C35 25.6121 27.1644 33 17.5 33C7.83563 33 0 25.6121 0 16.5C0 7.38788 7.83563 0 17.5 0C27.1644 0 35 7.38788 35 16.5ZM18.1271 12.1811C16.4252 12.848 13.0229 14.2299 7.92167 16.3254C7.09333 16.6361 6.65875 16.94 6.61938 17.237C6.55229 17.7403 7.22021 17.9383 8.12729 18.2064C8.25125 18.2435 8.37958 18.2806 8.51083 18.3219C9.40479 18.5955 10.6065 18.9159 11.2306 18.9282C11.7979 18.9392 12.4308 18.7193 13.1294 18.2683C17.8952 15.2336 20.3554 13.7005 20.51 13.6675C20.6194 13.6441 20.771 13.6139 20.8731 13.7005C20.9752 13.7857 20.965 13.948 20.9548 13.992C20.8877 14.2574 18.2715 16.5523 16.9152 17.7403C16.4923 18.1101 16.1933 18.3728 16.1321 18.4333C15.995 18.5666 15.855 18.6945 15.7208 18.8169C14.8896 19.5704 14.2683 20.1369 15.7558 21.0609C16.4704 21.505 17.0421 21.8721 17.6123 22.2379C18.235 22.638 18.8563 23.0367 19.6613 23.5345C19.8654 23.661 20.0608 23.7916 20.2519 23.9195C20.9767 24.4076 21.6285 24.8449 22.4335 24.7761C22.9002 24.7349 23.3844 24.321 23.6294 23.0849C24.2083 20.1616 25.3488 13.8311 25.6127 11.2214C25.6288 11.0047 25.619 10.787 25.5835 10.5724C25.5623 10.399 25.4728 10.2395 25.3327 10.1255C25.1242 9.96462 24.8004 9.93025 24.6546 9.933C23.9969 9.944 22.9877 10.2754 18.1271 12.1811V12.1811Z" fill="#241400"/>
</g>
<defs>
<clipPath id="clip0_8_234">
<rect width="35" height="33" fill="white"/>
</clipPath>
</defs>
</svg>
