<svg width="33" height="33" viewBox="0 0 33 33" fill="none" xmlns="http://www.w3.org/2000/svg">
<path d="M32.5093 6.78842C31.3612 7.29717 30.1278 7.64092 28.8312 7.79629C30.1691 6.99576 31.17 5.73581 31.6472 4.25154C30.3902 4.99816 29.0146 5.52369 27.58 5.80529C26.6152 4.77523 25.3374 4.09249 23.9449 3.86307C22.5524 3.63365 21.1231 3.87038 19.8789 4.53652C18.6347 5.20265 17.6453 6.26092 17.0642 7.54701C16.4831 8.83311 16.3428 10.2751 16.6652 11.649C14.1183 11.5212 11.6267 10.8592 9.35216 9.70604C7.07763 8.5529 5.07098 6.93439 3.46245 4.95554C2.91245 5.90429 2.5962 7.00429 2.5962 8.17579C2.59559 9.23041 2.85529 10.2689 3.35228 11.1991C3.84927 12.1292 4.56817 12.9223 5.4452 13.508C4.42808 13.4757 3.4334 13.2008 2.54395 12.7064V12.7889C2.54385 14.2681 3.05549 15.7017 3.99208 16.8465C4.92866 17.9914 6.23249 18.7769 7.68232 19.0699C6.73878 19.3253 5.74954 19.3629 4.78932 19.1799C5.19838 20.4526 5.99519 21.5656 7.0682 22.3629C8.14122 23.1603 9.43671 23.6022 10.7733 23.6267C8.50435 25.4079 5.70217 26.374 2.81757 26.3698C2.3066 26.3699 1.79605 26.3401 1.28857 26.2804C4.2166 28.163 7.62504 29.1622 11.1061 29.1583C22.8898 29.1583 29.3317 19.3985 29.3317 10.934C29.3317 10.659 29.3248 10.3813 29.3125 10.1063C30.5655 9.20013 31.6471 8.07803 32.5066 6.79254L32.5093 6.78842Z" fill="#241400"/>
</svg>
