<svg width="32" height="33" viewBox="0 0 32 33" fill="none" xmlns="http://www.w3.org/2000/svg">
<g clip-path="url(#clip0_8_240)">
<path d="M20.911 0H11.088C2.12402 0 -0.000976562 2.19141 -0.000976562 11.4355V21.5655C-0.000976562 30.8096 2.12402 33.001 11.088 33.001H20.911C29.875 33.001 32 30.8096 32 21.5655V11.4355C32 2.19141 29.854 0 20.911 0ZM25.833 23.5414H23.51C22.63 23.5414 22.359 22.8216 20.776 21.1674C19.401 19.7928 18.792 19.6103 18.453 19.6103C17.974 19.6103 17.838 19.7495 17.838 20.427V22.5916C17.838 23.1722 17.661 23.5208 16.171 23.5208C13.707 23.5208 10.973 21.9842 9.05602 19.1214C6.16502 14.9263 5.37402 11.7841 5.37402 11.1344C5.37402 10.7848 5.50902 10.4579 6.16002 10.4579H8.48802C9.07702 10.4579 9.30102 10.7374 9.53002 11.3871C10.681 14.8139 12.598 17.8159 13.389 17.8159C13.681 17.8159 13.816 17.6767 13.816 16.9084V13.3691C13.727 11.7367 12.894 11.5964 12.894 11.0168C12.894 10.7374 13.118 10.4579 13.477 10.4579H17.138C17.633 10.4579 17.815 10.7374 17.815 11.3386V16.1133C17.815 16.6289 18.039 16.8114 18.174 16.8114C18.466 16.8114 18.716 16.6289 19.257 16.07C20.929 14.1364 22.127 11.155 22.127 11.155C22.283 10.8054 22.554 10.4785 23.143 10.4785H25.471C26.169 10.4785 26.325 10.8488 26.169 11.3644C25.877 12.7607 23.028 16.9073 23.028 16.9073C22.783 17.326 22.689 17.5086 23.028 17.9757C23.278 18.3253 24.091 19.0503 24.632 19.7C25.627 20.8653 26.392 21.8429 26.596 22.5194C26.825 23.1908 26.487 23.5403 25.83 23.5403L25.833 23.5414Z" fill="#241400"/>
</g>
<defs>
<clipPath id="clip0_8_240">
<rect width="32" height="33" fill="white"/>
</clipPath>
</defs>
</svg>
