<svg width="35" height="33" viewBox="0 0 35 33" fill="none" xmlns="http://www.w3.org/2000/svg">
<g clip-path="url(#clip0_8_245)">
<path d="M34.2708 8.94711C34.0726 8.28055 33.6865 7.67708 33.1537 7.20086C32.6058 6.70999 31.9342 6.35886 31.2024 6.18061C28.4637 5.49998 17.4912 5.49998 17.4912 5.49998C12.9169 5.45091 8.34367 5.66673 3.79742 6.14623C3.06562 6.33765 2.39533 6.69663 1.84617 7.19123C1.30659 7.68073 0.915757 8.28436 0.71159 8.94573C0.221142 11.4369 -0.0171506 13.9663 -7.65037e-05 16.5C-0.0175765 19.0314 0.220132 21.56 0.71159 24.0542C0.911382 24.7129 1.30076 25.3137 1.8418 25.7991C2.38284 26.2845 3.05659 26.6351 3.79742 26.8207C6.57263 27.5 17.4912 27.5 17.4912 27.5C22.0713 27.5491 26.6503 27.3333 31.2024 26.8537C31.9342 26.6755 32.6058 26.3243 33.1537 25.8335C33.6933 25.3481 34.0768 24.7445 34.2693 24.0872C34.7726 21.597 35.0173 19.0665 34.9999 16.5316C35.0378 13.9859 34.7934 11.4435 34.2708 8.94573V8.94711ZM14.0028 21.208V11.7934L23.132 16.5014L14.0028 21.208Z" fill="#241400"/>
</g>
<defs>
<clipPath id="clip0_8_245">
<rect width="35" height="33" fill="white"/>
</clipPath>
</defs>
</svg>
